<?xml version="1.0" encoding="UTF-8" standalone="no"?>
<!-- Generator: Adobe Illustrator 16.0.0, SVG Export Plug-In . SVG Version: 6.00 Build 0)  -->

<svg
   xmlns:dc="http://purl.org/dc/elements/1.1/"
   xmlns:cc="http://creativecommons.org/ns#"
   xmlns:rdf="http://www.w3.org/1999/02/22-rdf-syntax-ns#"
   xmlns:svg="http://www.w3.org/2000/svg"
   xmlns="http://www.w3.org/2000/svg"
   xmlns:sodipodi="http://sodipodi.sourceforge.net/DTD/sodipodi-0.dtd"
   xmlns:inkscape="http://www.inkscape.org/namespaces/inkscape"
   version="1.1"
   id="Layer_1"
   x="0px"
   y="0px"
   width="34.176003"
   height="34.000149"
   viewBox="115.558 79.086 34.176002 34.000149"
   enable-background="new 115.558 79.086 280.884 353.828"
   xml:space="preserve"
   inkscape:version="0.91 r13725"
   sodipodi:docname="login.svg"><metadata
     id="metadata24"><rdf:RDF><cc:Work
         rdf:about=""><dc:format>image/svg+xml</dc:format><dc:type
           rdf:resource="http://purl.org/dc/dcmitype/StillImage" /><dc:title></dc:title></cc:Work></rdf:RDF></metadata><defs
     id="defs22"><pattern
       patternUnits="userSpaceOnUse"
       width="41.999999"
       height="41.999999"
       patternTransform="translate(118.55801,82.085986)"
       id="pattern4200"><ellipse
         transform="matrix(1,0,0.03726159,0.99930555,0,0)"
         ry="21.014593"
         rx="20.985395"
         cy="21.014593"
         cx="20.216963"
         id="path4165"
         style="opacity:1;fill:#0effc7;fill-opacity:0.44654092;fill-rule:evenodd;stroke:none;stroke-width:2.20000005;stroke-miterlimit:4;stroke-dasharray:none;stroke-opacity:1" /></pattern></defs><sodipodi:namedview
     pagecolor="#ffff6c"
     bordercolor="#666666"
     borderopacity="1"
     objecttolerance="10"
     gridtolerance="10"
     guidetolerance="10"
     inkscape:pageopacity="1"
     inkscape:pageshadow="2"
     inkscape:window-width="1366"
     inkscape:window-height="719"
     id="namedview20"
     showgrid="false"
     inkscape:zoom="11.313708"
     inkscape:cx="3.4209541"
     inkscape:cy="19.149444"
     inkscape:window-x="0"
     inkscape:window-y="27"
     inkscape:window-maximized="1"
     inkscape:current-layer="layer2"
     fit-margin-top="0"
     fit-margin-left="0"
     fit-margin-right="0"
     fit-margin-bottom="0"
     showguides="false"
     inkscape:object-paths="false" /><g
     id="Layer_2"
     style="fill:#68ffff;fill-opacity:1"
     transform="translate(0.09507005,-319.82805)" /><g
     id="Layer_3"
     style="fill:#68ffff;fill-opacity:1"
     transform="translate(0.09507005,-319.82805)" /><g
     inkscape:groupmode="layer"
     id="layer2"
     inkscape:label="back"
     style="display:inline;opacity:1"
     transform="translate(0.09506989,-14.000051)"><path
       style="color:#000000;font-style:normal;font-variant:normal;font-weight:normal;font-stretch:normal;font-size:medium;line-height:normal;font-family:sans-serif;text-indent:0;text-align:start;text-decoration:none;text-decoration-line:none;text-decoration-style:solid;text-decoration-color:#000000;letter-spacing:normal;word-spacing:normal;text-transform:none;direction:ltr;block-progression:tb;writing-mode:lr-tb;baseline-shift:baseline;text-anchor:start;white-space:normal;clip-rule:nonzero;display:inline;overflow:visible;visibility:visible;opacity:1;isolation:auto;mix-blend-mode:normal;color-interpolation:sRGB;color-interpolation-filters:linearRGB;solid-color:#000000;solid-opacity:1;fill:#ffffff;fill-opacity:1;fill-rule:evenodd;stroke:none;stroke-width:4;stroke-linecap:butt;stroke-linejoin:miter;stroke-miterlimit:4;stroke-dasharray:none;stroke-dashoffset:0;stroke-opacity:1;color-rendering:auto;image-rendering:auto;shape-rendering:auto;text-rendering:auto;enable-background:accumulate"
       d="m 132.61022,93.08605 c -1.74849,0 -3.45307,0.267964 -5.06648,0.770589 -1.61341,0.502625 -3.13543,1.239447 -4.5191,2.180336 -1.38367,0.940889 -2.62836,2.085756 -3.68761,3.400549 -0.26481,0.328699 -0.51859,0.667296 -0.75942,1.016846 -0.24084,0.34955 -0.4692,0.7097 -0.68459,1.0791 -0.34603,0.59481 -0.54217,1.1305 -0.55129,1.14868 0.0204,-0.03 2.11713,0.10364 3.16414,-0.0277 -0.07,0.12417 0.0617,-0.0543 0.41101,-0.5966 0.20062,-0.29147 0.41137,-0.57544 0.63192,-0.84945 0.8822,-1.09603 1.9186,-2.048306 3.07094,-2.831941 1.15234,-0.783636 2.42059,-1.398195 3.76522,-1.816486 1.34463,-0.418291 2.76622,-0.640543 4.2253,-0.640543 7.85405,0 14.19059,6.32585 14.19059,14.16665 0,7.84081 -6.33654,14.16665 -14.19059,14.16665 -3.05105,0 -5.92825,-0.97055 -8.2857,-2.66316 -0.58936,-0.42315 -1.14678,-0.89195 -1.66573,-1.40145 -0.51896,-0.50949 -0.99936,-1.05963 -1.43708,-1.6477 -0.43772,-0.58806 -0.83226,-1.21434 -1.17793,-1.87321 -0.2944,-0.56116 0.25324,0.61558 0.0329,0.008 -1.04928,-0.005 -2.15294,-0.0248 -3.14442,-0.0369 0.29087,0.86485 0.18145,0.55325 0.59631,1.3431 0.41486,0.78986 0.88922,1.53995 1.4149,2.24536 0.52568,0.70541 1.10339,1.36547 1.72671,1.97697 0.62331,0.61149 1.29193,1.17416 1.99971,1.68229 2.8311,2.03245 6.28501,3.19993 9.94034,3.19993 8.90196,0 16.14952,-6.88253 16.88459,-15.58332 l 0.14412,0 0,-1.41666 c 0,-9.37206 -7.64082,-16.999985 -17.02871,-16.999985 z"
       id="path5028"
       inkscape:connector-curvature="0"
       sodipodi:nodetypes="cssscccccsssssssscsccsssssccssc" /><path
       sodipodi:type="star"
       style="opacity:1;fill:#ffffff;fill-opacity:1;fill-rule:evenodd;stroke:#ffffff;stroke-width:3.9035511;stroke-miterlimit:4;stroke-dasharray:none;stroke-opacity:1"
       id="path4969"
       sodipodi:sides="3"
       sodipodi:cx="136.34805"
       sodipodi:cy="103.31027"
       sodipodi:r1="4.6935315"
       sodipodi:r2="2.3467658"
       sodipodi:arg1="2.0344439"
       sodipodi:arg2="3.0816415"
       inkscape:flatsided="false"
       inkscape:rounded="0"
       inkscape:randomized="0"
       d="m 134.24904,107.50829 -0.24354,-4.05741 -0.24354,-4.057416 3.6356,1.817796 3.63559,1.8178 -3.39205,2.23962 z"
       inkscape:transform-center-x="-1.1069975"
       inkscape:transform-center-y="0.011816427"
       transform="matrix(0.94948692,0.0611294,-0.05264545,1.102499,10.446407,-12.592047)" /><rect
       style="opacity:1;fill:#ffffff;fill-opacity:1;fill-rule:evenodd;stroke:#ffffff;stroke-width:3.99999976;stroke-miterlimit:4;stroke-dasharray:none;stroke-opacity:1"
       id="rect5044"
       width="11.172756"
       height="3.2519507"
       x="117.75713"
       y="108.25563" /></g><g
     inkscape:groupmode="layer"
     id="layer1"
     inkscape:label="front"
     style="opacity:1"
     transform="translate(0.09506989,-14.000051)"><path
       style="opacity:0;fill:#0effc7;fill-opacity:0.44654092;fill-rule:evenodd;stroke:none;stroke-width:2.20000005;stroke-miterlimit:4;stroke-dasharray:none;stroke-opacity:1"
       d="m 131.06707,125.50084 c -2.83674,-0.3843 -5.70729,-1.63469 -8.0089,-3.48859 -2.14664,-1.72909 -3.93619,-4.17226 -4.94269,-6.74799 -1.20797,-3.09128 -1.41272,-6.7038 -0.55483,-9.78885 0.9749,-3.50577 3.15473,-6.514403 6.14207,-8.477365 3.83069,-2.517117 8.778,-3.144153 13.2552,-1.680004 6.61742,2.164047 11.22692,8.442139 11.23176,15.297529 0.005,7.72959 -5.56072,14.00029 -13.25231,14.92971 -0.87492,0.10572 -2.93658,0.082 -3.8703,-0.0444 z"
       id="path4171"
       inkscape:connector-curvature="0" /><path
       style="opacity:0;fill:#0effc7;fill-opacity:0.44654092;fill-rule:evenodd;stroke:none;stroke-width:2.20000005;stroke-miterlimit:4;stroke-dasharray:none;stroke-opacity:1"
       d="m 131.06707,125.50084 c -2.83674,-0.3843 -5.70729,-1.63469 -8.0089,-3.48859 -2.14664,-1.72909 -3.93619,-4.17226 -4.94269,-6.74799 -1.20797,-3.09128 -1.41272,-6.7038 -0.55483,-9.78885 0.9749,-3.50577 3.15473,-6.514403 6.14207,-8.477365 3.83069,-2.517117 8.778,-3.144153 13.2552,-1.680004 6.61742,2.164047 11.22692,8.442139 11.23176,15.297529 0.005,7.72959 -5.56072,14.00029 -13.25231,14.92971 -0.87492,0.10572 -2.93658,0.082 -3.8703,-0.0444 z"
       id="path4173"
       inkscape:connector-curvature="0" /><path
       style="opacity:0;fill:#0effc7;fill-opacity:0.44654092;fill-rule:evenodd;stroke:none;stroke-width:2.20000005;stroke-miterlimit:4;stroke-dasharray:none;stroke-opacity:1"
       d="m 130.91428,126.98232 c -0.79526,-0.085 -2.23311,-0.3662 -3.00179,-0.58699 -6.48924,-1.86388 -11.18431,-7.29987 -12.16149,-14.08065 -0.14942,-1.03686 -0.14942,-3.42353 0,-4.46039 0.97704,-6.77977 5.67322,-12.217041 12.16149,-14.08065 1.69242,-0.48611 2.57859,-0.598339 4.7145,-0.597067 2.10546,0.0013 2.64063,0.0643 4.35623,0.513201 2.79464,0.731236 5.30426,2.145439 7.40805,4.174537 1.47801,1.425535 2.54766,2.885279 3.46185,4.724389 2.92749,5.88933 2.13409,13.01534 -2.02231,18.16356 -2.79873,3.46659 -6.92704,5.72126 -11.35786,6.20309 -0.67186,0.0731 -2.96508,0.0904 -3.55867,0.027 z m 3.68605,-1.36345 c 3.84694,-0.361 7.28442,-2.08352 9.85945,-4.94059 3.45054,-3.82847 4.64908,-9.45583 3.10033,-14.55667 -1.42391,-4.68969 -4.89047,-8.512401 -9.44789,-10.418569 -3.65983,-1.530748 -7.92006,-1.612699 -11.53694,-0.221926 -6.00399,2.308669 -9.79665,8.083395 -9.56431,14.562665 0.14857,4.14327 1.81558,7.91786 4.81254,10.89693 3.406,3.38569 8.12755,5.11445 12.77682,4.67816 z"
       id="path4175"
       inkscape:connector-curvature="0" /><path
       style="opacity:0;fill:#0effc7;fill-opacity:0.44654092;fill-rule:evenodd;stroke:none;stroke-width:2.20000005;stroke-miterlimit:4;stroke-dasharray:none;stroke-opacity:1"
       d="m 130.91428,126.98232 c -0.79526,-0.085 -2.23311,-0.3662 -3.00179,-0.58699 -6.48924,-1.86388 -11.18431,-7.29987 -12.16149,-14.08065 -0.14942,-1.03686 -0.14942,-3.42353 0,-4.46039 0.97704,-6.77977 5.67322,-12.217041 12.16149,-14.08065 1.69242,-0.48611 2.57859,-0.598339 4.7145,-0.597067 2.10546,0.0013 2.64063,0.0643 4.35623,0.513201 2.79464,0.731236 5.30426,2.145439 7.40805,4.174537 1.47801,1.425535 2.54766,2.885279 3.46185,4.724389 2.92749,5.88933 2.13409,13.01534 -2.02231,18.16356 -2.79873,3.46659 -6.92704,5.72126 -11.35786,6.20309 -0.67186,0.0731 -2.96508,0.0904 -3.55867,0.027 z m 4.80303,-1.50756 c 2.58099,-0.44301 4.79331,-1.41374 6.85083,-3.00602 0.49435,-0.38258 2.12227,-1.96523 2.12227,-2.06326 0,-0.0341 -5.28613,-0.0606 -11.74694,-0.0589 l -11.74694,0.004 0.74466,0.71464 c 2.71036,2.60113 6.06153,4.1692 9.74019,4.55763 0.96788,0.1022 3.0183,0.0273 4.03593,-0.14731 l 0,0 z m 9.23373,-5.35439 c 0.0741,-0.0818 0.11802,-0.14868 0.0975,-0.14868 -0.0205,0 -0.0979,0.0669 -0.17201,0.14868 -0.0741,0.0818 -0.11803,0.14868 -0.0975,0.14868 0.0205,0 0.0979,-0.0669 0.17202,-0.14868 z m -23.94067,-0.1 c 0,-0.0141 -0.0754,-0.0894 -0.16755,-0.16726 l -0.16755,-0.14161 0.14186,0.16726 c 0.13331,0.15719 0.19324,0.20111 0.19324,0.14161 z m 24.21079,-0.25312 c 0.0926,-0.11791 0.09,-0.12054 -0.0281,-0.028 -0.12404,0.0971 -0.16348,0.15816 -0.10219,0.15816 0.0155,0 0.0741,-0.0586 0.13031,-0.1301 z m -24.58312,-0.19534 c 0,-0.0154 -0.0586,-0.074 -0.13032,-0.13009 -0.1181,-0.0925 -0.12074,-0.0898 -0.0281,0.0281 0.0973,0.12383 0.15843,0.16322 0.15843,0.10203 z m 24.80652,-0.10202 c 0.0926,-0.11791 0.09,-0.12053 -0.0281,-0.028 -0.12404,0.0971 -0.16349,0.15816 -0.1022,0.15816 0.0155,0 0.0741,-0.0586 0.13032,-0.13009 z m 1.03302,-1.65406 c 0.0438,-0.0818 0.063,-0.14869 0.0425,-0.14869 -0.0205,0 -0.0731,0.0669 -0.11694,0.14869 -0.0438,0.0818 -0.063,0.14868 -0.0425,0.14868 0.0205,0 0.0731,-0.0669 0.11694,-0.14868 z m -27.98995,-1.68566 c -0.0878,-0.1507 -0.10898,-0.10247 -0.0371,0.0845 0.0255,0.0664 0.0621,0.10514 0.0813,0.086 0.0192,-0.0191 -7e-4,-0.0958 -0.0442,-0.17047 z m 29.3812,-2.19396 c -0.0238,-0.0593 -0.0414,-0.0417 -0.045,0.0449 -0.003,0.0784 0.0144,0.12227 0.0391,0.0976 0.0247,-0.0247 0.0274,-0.0888 0.006,-0.14249 l 1e-5,0 z m 0.0745,-0.3717 c -0.0238,-0.0593 -0.0414,-0.0417 -0.045,0.0449 -0.003,0.0784 0.0144,0.12227 0.0391,0.0976 0.0247,-0.0247 0.0274,-0.0888 0.006,-0.14248 l 0,0 z m 0.0745,-0.3717 c -0.0238,-0.0593 -0.0414,-0.0417 -0.045,0.0449 -0.003,0.0784 0.0144,0.12227 0.0391,0.0976 0.0247,-0.0247 0.0274,-0.0888 0.006,-0.14248 l 1e-5,0 z m -30.60534,-0.22302 c -0.0238,-0.0593 -0.0414,-0.0417 -0.045,0.0449 -0.003,0.0784 0.0144,0.12227 0.0391,0.0976 0.0247,-0.0247 0.0274,-0.0888 0.006,-0.14248 z m 30.67825,-0.302 c -0.0206,-0.0511 -0.0376,-0.009 -0.0376,0.0929 0,0.10222 0.0169,0.14404 0.0376,0.0929 0.0207,-0.0511 0.0207,-0.13475 0,-0.18585 z m -30.75271,-0.0697 c -0.0238,-0.0593 -0.0414,-0.0417 -0.045,0.0449 -0.003,0.0784 0.0144,0.12227 0.0391,0.0976 0.0247,-0.0247 0.0274,-0.0888 0.006,-0.14249 z m -0.0745,-0.37171 c -0.0238,-0.0593 -0.0414,-0.0416 -0.045,0.0449 -0.003,0.0784 0.0144,0.12227 0.0391,0.0976 0.0247,-0.0247 0.0274,-0.0888 0.006,-0.14248 z m 30.905,-0.30113 c -0.0178,-0.0925 -0.0331,-0.0343 -0.0339,0.12923 -8.5e-4,0.16355 0.0137,0.2392 0.0324,0.16813 0.0186,-0.0711 0.0193,-0.20489 10e-4,-0.29736 l 0,0 z m -30.9795,-0.1449 c -0.0238,-0.0593 -0.0414,-0.0417 -0.045,0.0449 -0.003,0.0784 0.0144,0.12227 0.0391,0.0976 0.0247,-0.0247 0.0274,-0.0888 0.006,-0.14249 z m -0.0737,-0.63512 c -0.0189,-0.0723 -0.0356,-0.0312 -0.0371,0.0915 -0.002,0.12267 0.0139,0.18185 0.0343,0.13151 0.0204,-0.0504 0.0216,-0.15069 0.003,-0.22302 z m 31.12961,-0.78001 c -0.0157,-0.17485 -0.0288,-0.0503 -0.0291,0.27681 -3e-4,0.32709 0.0126,0.47015 0.0286,0.31791 0.016,-0.15225 0.0162,-0.41988 5.2e-4,-0.59472 l -3e-5,0 z m -31.20134,-0.40918 c -0.0161,-0.15424 -0.0296,-0.0463 -0.0299,0.23994 -3.2e-4,0.28621 0.0129,0.41241 0.0293,0.28044 0.0165,-0.13197 0.0167,-0.36614 6.1e-4,-0.52038 l -1e-5,0 z m 31.12358,-0.8194 c -0.0187,-0.0716 -0.0341,-0.013 -0.0341,0.1301 0,0.1431 0.0153,0.20164 0.0341,0.13009 0.0187,-0.0716 0.0187,-0.18864 0,-0.26019 z m -31.12405,-0.63188 c -0.0165,-0.13289 -0.03,-0.0242 -0.03,0.2416 0,0.26577 0.0135,0.37449 0.03,0.24161 0.0165,-0.13289 0.0165,-0.35033 0,-0.48321 z m 31.04757,0 c -0.0206,-0.0511 -0.0376,-0.009 -0.0376,0.0929 0,0.10221 0.0169,0.14403 0.0376,0.0929 0.0207,-0.0511 0.0207,-0.13474 0,-0.18584 z m -0.0729,-0.4414 c -0.0238,-0.0593 -0.0414,-0.0417 -0.045,0.0449 -0.003,0.0784 0.0144,0.12228 0.0391,0.0976 0.0247,-0.0247 0.0274,-0.0888 0.006,-0.14248 l 1e-5,0 z m -30.9025,-0.4121 c -0.0189,-0.0723 -0.0356,-0.0311 -0.0371,0.0915 -0.002,0.12266 0.0139,0.18184 0.0343,0.13151 0.0204,-0.0503 0.0216,-0.15069 0.003,-0.22302 z m 30.82799,-0.0339 c -0.0238,-0.0593 -0.0414,-0.0417 -0.045,0.0449 -0.003,0.0784 0.0144,0.12227 0.0391,0.0976 0.0247,-0.0247 0.0274,-0.0888 0.006,-0.14249 l 0,0 z m -0.0745,-0.3717 c -0.0238,-0.0593 -0.0414,-0.0417 -0.045,0.0449 -0.003,0.0784 0.0144,0.12227 0.0391,0.0976 0.0247,-0.0247 0.0274,-0.0888 0.006,-0.14248 l 1e-5,0 z m -30.68135,-0.15332 c -0.0207,-0.0511 -0.0376,-0.009 -0.0376,0.0929 0,0.10222 0.0169,0.14403 0.0376,0.0929 0.0207,-0.0511 0.0207,-0.13475 0,-0.18585 z m 0.15048,-0.8131 c -0.0238,-0.0593 -0.0414,-0.0417 -0.045,0.0449 -0.003,0.0784 0.0144,0.12227 0.0391,0.0976 0.0247,-0.0247 0.0274,-0.0888 0.006,-0.14249 z m 1.21276,-3.44286 c 0,-0.0409 -0.0325,-0.0242 -0.0722,0.0372 -0.0397,0.0613 -0.0722,0.14496 -0.0722,0.18585 0,0.0409 0.0325,0.0242 0.0722,-0.0372 0.0397,-0.0613 0.0722,-0.14497 0.0722,-0.18585 z m 0.22568,-0.40887 c 0.0438,-0.0818 0.063,-0.14868 0.0425,-0.14868 -0.0205,0 -0.0731,0.0669 -0.11693,0.14868 -0.0438,0.0818 -0.063,0.14868 -0.0425,0.14868 0.0205,0 0.0731,-0.0669 0.11694,-0.14868 z m 1.20095,-1.91426 c 0.0926,-0.1179 0.09,-0.12053 -0.0281,-0.0281 -0.0717,0.0561 -0.13031,0.11466 -0.13031,0.13009 0,0.0612 0.0611,0.0218 0.15843,-0.10202 z m 24.71306,0.10445 c 0,-0.0141 -0.0754,-0.0894 -0.16755,-0.16726 l -0.16755,-0.14162 0.14186,0.16726 c 0.13331,0.15719 0.19324,0.20111 0.19324,0.14162 z m -0.37233,-0.44365 c 0,-0.0128 -0.10891,-0.12152 -0.24201,-0.241606 l -0.24202,-0.218343 0.21871,0.241604 c 0.20387,0.225205 0.26532,0.275775 0.26532,0.218345 z m -23.7917,-0.34844 c 0.0741,-0.08177 0.11803,-0.14868 0.0975,-0.14868 -0.0205,0 -0.0979,0.06691 -0.17201,0.14868 -0.0741,0.08177 -0.11803,0.14868 -0.0975,0.14868 0.0205,0 0.0979,-0.0669 0.17201,-0.14868 z m 0.89359,-0.966418 c 0.28449,-0.286209 0.50051,-0.52038 0.48003,-0.52038 -0.0205,0 -0.27,0.234171 -0.5545,0.52038 -0.28449,0.286209 -0.50051,0.520379 -0.48003,0.520379 0.0205,0 0.27,-0.23417 0.5545,-0.520379 z M 142.9777,98.8359 c 0,-0.01279 -0.10891,-0.121516 -0.24201,-0.241604 l -0.24202,-0.218343 0.21872,0.241604 c 0.20386,0.22521 0.26531,0.275775 0.26531,0.218343 z m -0.59573,-0.522766 c 0,-0.0141 -0.0754,-0.08938 -0.16754,-0.167265 l -0.16755,-0.141616 0.14186,0.167264 c 0.13331,0.157189 0.19323,0.201108 0.19323,0.141617 z m -20.02173,-0.327466 c 0.0926,-0.117907 0.09,-0.120536 -0.0281,-0.02806 -0.0717,0.05611 -0.13031,0.114657 -0.13031,0.130094 0,0.06119 0.0611,0.0218 0.15842,-0.102027 z m 19.57494,-0.04665 c 0,-0.01543 -0.0586,-0.07398 -0.13031,-0.130095 -0.11811,-0.09247 -0.12074,-0.08984 -0.0281,0.02807 0.0973,0.123832 0.15843,0.163212 0.15843,0.102028 z m -0.29786,-0.223021 c 0,-0.01544 -0.0586,-0.07398 -0.13032,-0.130095 -0.1181,-0.09247 -0.12074,-0.08984 -0.0281,0.02807 0.0973,0.123831 0.15843,0.163211 0.15843,0.102027 z m -5.75401,-2.767423 c -0.0247,-0.0247 -0.089,-0.02734 -0.14273,-0.0059 -0.0594,0.02373 -0.0418,0.04134 0.045,0.04492 0.0785,0.0033 0.12248,-0.01434 0.0977,-0.03904 z m -7.1487,-0.07434 c -0.0247,-0.0247 -0.089,-0.02734 -0.14272,-0.0059 -0.0594,0.02373 -0.0418,0.04135 0.045,0.04492 0.0785,0.0033 0.12248,-0.01434 0.0977,-0.03904 z m 0.29787,-0.07434 c -0.0247,-0.0247 -0.089,-0.02734 -0.14273,-0.0059 -0.0594,0.02373 -0.0418,0.04134 0.045,0.04491 0.0785,0.0033 0.12248,-0.01434 0.0977,-0.03904 z m 6.18064,0 c -0.0248,-0.0247 -0.089,-0.02734 -0.14273,-0.0059 -0.0594,0.02373 -0.0418,0.04134 0.045,0.04491 0.0785,0.0033 0.12248,-0.01434 0.0977,-0.03904 z m -5.73385,-0.07434 c -0.0247,-0.0247 -0.089,-0.02734 -0.14273,-0.0059 -0.0594,0.02373 -0.0418,0.04135 0.045,0.04492 0.0785,0.0033 0.12248,-0.01434 0.0977,-0.03904 z m 5.32584,-0.0043 c -0.0512,-0.02063 -0.13497,-0.02063 -0.18617,0 -0.0512,0.02062 -0.009,0.0375 0.0931,0.0375 0.10239,0 0.14428,-0.01687 0.0931,-0.0375 z m -4.83885,-0.07387 c -0.0504,-0.02036 -0.15094,-0.0216 -0.22339,-0.0028 -0.0725,0.01885 -0.0312,0.03551 0.0917,0.03702 0.12287,0.0015 0.18215,-0.0139 0.13173,-0.03427 z m 4.39347,0 c -0.0504,-0.02036 -0.15094,-0.0216 -0.2234,-0.0028 -0.0724,0.01885 -0.0312,0.03551 0.0917,0.03702 0.12287,0.0015 0.18215,-0.0139 0.13173,-0.03427 z m -3.76193,-0.07682 c -0.0717,-0.0187 -0.18895,-0.0187 -0.26063,0 -0.0717,0.0187 -0.013,0.034 0.13032,0.034 0.14335,0 0.20199,-0.0153 0.13031,-0.034 z m 3.12756,0 c -0.0717,-0.0187 -0.18896,-0.0187 -0.26063,0 -0.0717,0.0187 -0.013,0.034 0.13031,0.034 0.14335,0 0.20199,-0.0153 0.13032,-0.034 z m -1.22869,-0.07814 c -0.25597,-0.01451 -0.67484,-0.01451 -0.93081,0 -0.25598,0.01451 -0.0465,0.02639 0.46541,0.02639 0.51195,0 0.72138,-0.01188 0.4654,-0.02639 z"
       id="path4177"
       inkscape:connector-curvature="0" /></g></svg>