<?xml version="1.0" encoding="UTF-8" standalone="no"?>
<!-- Generator: Adobe Illustrator 16.0.0, SVG Export Plug-In . SVG Version: 6.00 Build 0)  -->

<svg
   xmlns:dc="http://purl.org/dc/elements/1.1/"
   xmlns:cc="http://creativecommons.org/ns#"
   xmlns:rdf="http://www.w3.org/1999/02/22-rdf-syntax-ns#"
   xmlns:svg="http://www.w3.org/2000/svg"
   xmlns="http://www.w3.org/2000/svg"
   xmlns:sodipodi="http://sodipodi.sourceforge.net/DTD/sodipodi-0.dtd"
   xmlns:inkscape="http://www.inkscape.org/namespaces/inkscape"
   version="1.1"
   id="Layer_1"
   x="0px"
   y="0px"
   width="25.402987"
   height="32"
   viewBox="115.558 79.086 25.402986 32"
   enable-background="new 115.558 79.086 280.884 353.828"
   xml:space="preserve"
   inkscape:version="0.91 r13725"
   sodipodi:docname="login.svg"><metadata
     id="metadata24"><rdf:RDF><cc:Work
         rdf:about=""><dc:format>image/svg+xml</dc:format><dc:type
           rdf:resource="http://purl.org/dc/dcmitype/StillImage" /><dc:title></dc:title></cc:Work></rdf:RDF></metadata><defs
     id="defs22" /><sodipodi:namedview
     pagecolor="#ffffff"
     bordercolor="#666666"
     borderopacity="1"
     objecttolerance="10"
     gridtolerance="10"
     guidetolerance="10"
     inkscape:pageopacity="0"
     inkscape:pageshadow="2"
     inkscape:window-width="1366"
     inkscape:window-height="719"
     id="namedview20"
     showgrid="false"
     inkscape:zoom="0.66699074"
     inkscape:cx="146.43908"
     inkscape:cy="176.914"
     inkscape:window-x="0"
     inkscape:window-y="27"
     inkscape:window-maximized="1"
     inkscape:current-layer="Layer_1"
     fit-margin-top="0"
     fit-margin-left="0"
     fit-margin-right="0"
     fit-margin-bottom="0" /><g
     id="Layer_1_1_"
     style="fill:#ffffff;fill-opacity:1"
     transform="matrix(0.09043942,0,0,0.09043942,105.107,71.933507)"><g
       id="g4"
       style="fill:#ffffff;fill-opacity:1"><path
         d="m 317.36,432.914 -97.475,0 c -5.523,0 -10,-4.477 -10,-10 0,-5.523 4.477,-10 10,-10 l 97.475,0 c 32.577,0 59.082,-26.492 59.082,-59.057 l 0,-195.702 c 0,-32.571 -26.505,-59.069 -59.082,-59.069 l -97.475,0 c -5.523,0 -10,-4.477 -10,-10 0,-5.523 4.477,-10 10,-10 l 97.475,0 c 43.605,0 79.082,35.47 79.082,79.069 l 0,195.702 c 0,43.593 -35.476,79.057 -79.082,79.057 z"
         id="path6"
         style="fill:#ffffff;fill-opacity:1"
         inkscape:connector-curvature="0" /><g
         id="g8"
         style="fill:#ffffff;fill-opacity:1"><g
           id="g10"
           style="fill:#ffffff;fill-opacity:1"><path
             d="m 240.528,325.382 c -2.56,0 -5.119,-0.978 -7.072,-2.93 -1.953,-1.953 -2.929,-4.513 -2.928,-7.071 0,-2.561 0.977,-5.119 2.93,-7.07 l 61.792,-61.778 c 3.904,-3.906 10.238,-3.904 14.142,0.001 1.953,1.953 2.93,4.512 2.929,7.071 0,2.56 -0.978,5.119 -2.931,7.071 l -61.792,61.778 c -1.952,1.952 -4.511,2.928 -7.07,2.928 z"
             id="path12"
             style="fill:#ffffff;fill-opacity:1"
             inkscape:connector-curvature="0" /></g><path
           d="m 302.32,263.604 -176.762,0 c -5.523,0 -10,-4.477 -10,-10 0,-5.523 4.477,-10 10,-10 l 176.762,0 c 5.522,0 10,4.477 10,10 0,5.523 -4.477,10 -10,10 z"
           id="path14"
           style="fill:#ffffff;fill-opacity:1"
           inkscape:connector-curvature="0" /><path
           d="m 302.32,263.604 c -2.547,0 -5.092,-0.965 -7.043,-2.899 l -61.792,-61.292 c -1.972,-1.956 -2.958,-4.53 -2.958,-7.104 0.001,-2.544 0.967,-5.089 2.9,-7.038 3.889,-3.922 10.22,-3.947 14.142,-0.057 l 61.792,61.292 c 1.972,1.956 2.958,4.53 2.958,7.104 -0.001,2.544 -0.967,5.089 -2.9,7.038 -1.954,1.969 -4.526,2.956 -7.099,2.956 z"
           id="path16"
           style="fill:#ffffff;fill-opacity:1"
           inkscape:connector-curvature="0" /></g></g></g><g
     id="Layer_2"
     style="fill:#68ffff;fill-opacity:1"
     transform="translate(1.6086656e-7,-321.828)" /><g
     id="Layer_3"
     style="fill:#68ffff;fill-opacity:1"
     transform="translate(1.6086656e-7,-321.828)" /></svg>